<?xml version="1.0" encoding="utf-8"?>
<!-- Generator: Adobe Illustrator 22.0.1, SVG Export Plug-In . SVG Version: 6.00 Build 0)  -->
<svg version="1.1" id="Слой_1" xmlns="http://www.w3.org/2000/svg" xmlns:xlink="http://www.w3.org/1999/xlink" x="0px" y="0px"
	 viewBox="0 0 19 13.2" style="enable-background:new 0 0 19 13.2;" xml:space="preserve">
<style type="text/css">
	.st0{fill:none;stroke:#FFFFFF;}
	.st1{fill:#FFFDFD;}
</style>
<g transform="translate(-42 -89)">
	<line class="st0" x1="80.3" y1="98.9" x2="99.3" y2="98.9"/>
	<line class="st0" x1="80.3" y1="111.1" x2="99.3" y2="111.1"/>
	<path class="st0" d="M80.3,105h12.1"/>
</g>
<g>
	<g>
		<path class="st1" d="M8.4,6.6c0,0.2,0.1,0.4,0.3,0.5l7.4,5.9c0.2,0.1,0.4,0.2,0.6,0.2s0.5-0.1,0.6-0.2l0.5-0.4
			c0.2-0.1,0.3-0.3,0.3-0.5c0-0.2-0.1-0.4-0.3-0.5l-6.2-4.9l6.2-4.9c0.4-0.3,0.4-0.7,0-1l-0.5-0.4C17.2,0.1,17,0,16.7,0
			c-0.2,0-0.5,0.1-0.6,0.2L8.6,6.1C8.5,6.2,8.4,6.4,8.4,6.6z"/>
	</g>
</g>
<g>
	<g>
		<path class="st1" d="M0.8,6.6c0,0.2,0.1,0.4,0.3,0.5l7.4,5.9c0.2,0.1,0.4,0.2,0.6,0.2c0.2,0,0.5-0.1,0.6-0.2l0.5-0.4
			c0.2-0.1,0.3-0.3,0.3-0.5c0-0.2-0.1-0.4-0.3-0.5L4.1,6.6l6.2-4.9c0.4-0.3,0.4-0.7,0-1L9.8,0.2C9.6,0.1,9.4,0,9.1,0
			S8.7,0.1,8.5,0.2L1.1,6.1C0.9,6.2,0.8,6.4,0.8,6.6z"/>
	</g>
</g>
</svg>
