<?xml version="1.0" encoding="utf-8"?>
<!-- Generator: Adobe Illustrator 22.0.1, SVG Export Plug-In . SVG Version: 6.00 Build 0)  -->
<svg version="1.1" id="Слой_1" xmlns="http://www.w3.org/2000/svg" xmlns:xlink="http://www.w3.org/1999/xlink" x="0px" y="0px"
	 viewBox="0 0 17 17" style="enable-background:new 0 0 17 17;" xml:space="preserve">
<style type="text/css">
	.st0{fill:none;stroke:#FFFFFF;}
	.st1{fill:#9B1610;}
</style>
<g transform="translate(246 140.5)">
	<line class="st0" x1="-208.5" y1="-137.6" x2="-208.5" y2="-120.6"/>
	<line class="st0" x1="-200" y1="-129.1" x2="-217" y2="-129.1"/>
</g>
<g id="surface1840594">
	<path class="st1" d="M12.3,0L2.2,10.2L0,17l6.8-2.2L17,4.7c0,0-0.1-1.6-1.6-3.1S12.3,0,12.3,0z M12.6,1.3c0.8,0.2,1.5,0.5,2,1
		c0.5,0.5,0.9,1.2,1.1,2.1l-1.4,1.4l-3.1-3.1L12.6,1.3z M3,10.9c0,0,0.9,0.2,1.9,1.2c1,0.9,1.2,1.8,1.2,1.8l0,0l-2.8,0.9l-1.2-1.2
		L3,10.9z"/>
</g>
</svg>
